<?xml version="1.0" encoding="utf-8"?>
<!-- Generator: Adobe Illustrator 19.1.0, SVG Export Plug-In . SVG Version: 6.00 Build 0)  -->
<!DOCTYPE svg PUBLIC "-//W3C//DTD SVG 1.1//EN" "http://www.w3.org/Graphics/SVG/1.1/DTD/svg11.dtd">
<svg version="1.1" id="Layer_1" xmlns="http://www.w3.org/2000/svg" xmlns:xlink="http://www.w3.org/1999/xlink" x="0px" y="0px"
	 width="178.7px" height="48.3px" viewBox="0 0 178.7 48.3" style="enable-background:new 0 0 178.7 48.3;" xml:space="preserve">
<g>
	<path d="M5.5,26.7H0V0h5.5V26.7z"/>
	<path d="M26.1,0v4.7h-8v21.9h-5.6V4.7h-8V0H26.1z"/>
	<path d="M29,0l3.5,15.3l0.8,4.2l0.8-4.2l3-15.4h5.9l3.2,15.3l0.8,4.2l0.8-4.1L51.3,0H57l-7.5,26.7h-5.3l-3.2-15.6L40,5.9L39,11.1
		l-3.2,15.6h-5.2L23.1,0H29z"/>
	<path d="M69.1,7.3c1.4,0.6,2.5,1.6,3.4,2.9c0.8,1.2,1.3,2.5,1.6,4.1c0.1,0.9,0.2,2.2,0.2,3.9H59.9c0.1,2,0.8,3.4,2.1,4.2
		c0.8,0.5,1.7,0.7,2.8,0.7c1.2,0,2.1-0.3,2.9-0.9c0.4-0.3,0.8-0.8,1.1-1.4H74c-0.1,1.2-0.8,2.4-1.9,3.6c-1.8,1.9-4.2,2.9-7.4,2.9
		c-2.6,0-4.9-0.8-6.9-2.4c-2-1.6-3-4.2-3-7.9c0-3.4,0.9-6,2.7-7.9c1.8-1.8,4.2-2.7,7-2.7C66.2,6.4,67.7,6.7,69.1,7.3z M61.4,11.8
		c-0.7,0.8-1.2,1.8-1.4,3.1h8.9c-0.1-1.4-0.6-2.4-1.4-3.1s-1.8-1.1-3.1-1.1C63.1,10.7,62.1,11,61.4,11.8z"/>
	<path d="M93.7,9.3c1.5,1.9,2.2,4.3,2.2,7.2c0,3.1-0.7,5.6-2.2,7.6c-1.5,2-3.5,3-6.1,3c-1.6,0-3-0.3-3.9-1c-0.6-0.4-1.2-1.1-1.9-2
		v2.5h-5.1V0h5.2v9.5c0.7-0.9,1.4-1.6,2.2-2.1c0.9-0.6,2.1-0.9,3.6-0.9C90.2,6.5,92.2,7.4,93.7,9.3z M89.4,21.3
		c0.7-1.1,1.1-2.5,1.1-4.2c0-1.4-0.2-2.6-0.5-3.5c-0.7-1.7-2-2.6-3.8-2.6c-1.9,0-3.2,0.8-3.9,2.5c-0.4,0.9-0.5,2.1-0.5,3.5
		c0,1.7,0.4,3.1,1.1,4.2c0.8,1.1,1.9,1.7,3.4,1.7C87.6,22.9,88.6,22.4,89.4,21.3z"/>
</g>
<g>
	<path d="M0,33.2h1.6v11.5H0V33.2z"/>
	<path d="M3.9,36.3h1.3v1.2c0.4-0.5,0.8-0.8,1.3-1.1s0.9-0.3,1.5-0.3c1.2,0,2,0.4,2.4,1.2c0.2,0.5,0.3,1.1,0.3,1.9v5.4H9.3v-5.3
		c0-0.5-0.1-0.9-0.2-1.2c-0.3-0.5-0.7-0.8-1.4-0.8c-0.3,0-0.6,0-0.8,0.1c-0.4,0.1-0.7,0.3-1,0.7c-0.2,0.3-0.4,0.6-0.5,0.9
		s-0.1,0.7-0.1,1.3v4.4H3.9V36.3z"/>
	<path d="M13.5,33.8c0.3-0.5,1-0.7,1.9-0.7c0.1,0,0.2,0,0.3,0c0.1,0,0.2,0,0.3,0v1.3c-0.1,0-0.3,0-0.3,0c-0.1,0-0.1,0-0.2,0
		c-0.4,0-0.7,0.1-0.8,0.3c-0.1,0.2-0.1,0.8-0.1,1.7H16v1.1h-1.4v7.2h-1.4v-7.2H12v-1.1h1.2v-1.3C13.2,34.5,13.3,34.1,13.5,33.8z"/>
	<path d="M23.3,37.2c0.7,0.7,1.1,1.8,1.1,3.2c0,1.3-0.3,2.5-1,3.3c-0.7,0.9-1.7,1.3-3,1.3c-1.1,0-2.1-0.4-2.7-1.2
		c-0.7-0.8-1-1.8-1-3.1c0-1.4,0.4-2.5,1.1-3.4c0.7-0.8,1.7-1.2,2.9-1.2C21.7,36.1,22.6,36.5,23.3,37.2z M22.5,42.7
		c0.3-0.7,0.5-1.5,0.5-2.4c0-0.8-0.1-1.4-0.4-1.9c-0.4-0.8-1.1-1.2-2-1.2c-0.9,0-1.5,0.3-1.9,1c-0.4,0.7-0.6,1.4-0.6,2.4
		c0,0.9,0.2,1.6,0.6,2.2c0.4,0.6,1,0.9,1.8,0.9C21.5,43.8,22.1,43.5,22.5,42.7z"/>
	<path d="M26.2,36.3h1.3v1.4c0.1-0.3,0.4-0.6,0.8-1s0.9-0.6,1.5-0.6c0,0,0.1,0,0.1,0c0.1,0,0.2,0,0.3,0v1.5c-0.1,0-0.2,0-0.2,0
		c-0.1,0-0.1,0-0.2,0c-0.7,0-1.3,0.2-1.6,0.7s-0.6,1-0.6,1.6v4.8h-1.4V36.3z"/>
	<path d="M31.5,36.3h1.4v1.2c0.3-0.4,0.6-0.7,0.9-0.9c0.5-0.3,1-0.5,1.6-0.5c0.7,0,1.2,0.2,1.6,0.5c0.2,0.2,0.4,0.5,0.6,0.8
		c0.3-0.4,0.7-0.8,1.1-1s0.9-0.3,1.4-0.3c1.1,0,1.9,0.4,2.3,1.2c0.2,0.4,0.3,1,0.3,1.8v5.6h-1.5v-5.8c0-0.6-0.1-0.9-0.4-1.1
		c-0.3-0.2-0.6-0.3-1-0.3c-0.6,0-1,0.2-1.4,0.6c-0.4,0.4-0.6,1-0.6,1.9v4.9h-1.4v-5.5c0-0.6-0.1-1-0.2-1.2c-0.2-0.4-0.6-0.6-1.2-0.6
		c-0.5,0-1,0.2-1.5,0.6s-0.7,1.2-0.7,2.2v4.4h-1.4V36.3z"/>
	<path d="M49.3,39.7c0.3,0,0.5-0.2,0.6-0.4c0.1-0.1,0.1-0.3,0.1-0.5c0-0.5-0.2-0.8-0.5-1c-0.3-0.2-0.8-0.3-1.5-0.3
		c-0.7,0-1.3,0.2-1.6,0.6c-0.2,0.2-0.3,0.5-0.3,1h-1.3c0-1,0.4-1.8,1-2.2c0.6-0.4,1.4-0.6,2.2-0.6c1,0,1.8,0.2,2.4,0.6
		c0.6,0.4,0.9,1,0.9,1.8v4.8c0,0.1,0,0.3,0.1,0.4c0.1,0.1,0.2,0.1,0.4,0.1c0.1,0,0.1,0,0.2,0c0.1,0,0.2,0,0.3,0v1
		c-0.2,0.1-0.4,0.1-0.5,0.1c-0.1,0-0.3,0-0.5,0c-0.5,0-0.8-0.2-1.1-0.5c-0.1-0.2-0.2-0.4-0.2-0.8c-0.3,0.4-0.7,0.7-1.2,1
		c-0.5,0.3-1.1,0.4-1.8,0.4c-0.8,0-1.4-0.2-1.9-0.7c-0.5-0.5-0.7-1.1-0.7-1.8c0-0.8,0.2-1.4,0.7-1.8c0.5-0.4,1.1-0.7,1.9-0.8
		L49.3,39.7z M46.4,43.5c0.3,0.2,0.6,0.4,1.1,0.4c0.5,0,1-0.1,1.4-0.3c0.8-0.4,1.2-1,1.2-1.9v-1.1c-0.2,0.1-0.4,0.2-0.7,0.3
		c-0.3,0.1-0.5,0.1-0.8,0.2L47.7,41c-0.5,0.1-0.9,0.2-1.2,0.3c-0.4,0.2-0.7,0.6-0.7,1.2C45.9,42.9,46.1,43.2,46.4,43.5z"/>
	<path d="M54,34h1.4v2.3h1.3v1.1h-1.3V43c0,0.3,0.1,0.5,0.3,0.6c0.1,0.1,0.3,0.1,0.5,0.1c0.1,0,0.1,0,0.2,0s0.2,0,0.3,0v1.1
		c-0.2,0-0.3,0.1-0.5,0.1s-0.4,0-0.6,0c-0.7,0-1.1-0.2-1.3-0.5C54.1,44,54,43.6,54,43v-5.5h-1.1v-1.1H54V34z"/>
	<path d="M58.2,33.2h1.4v1.6h-1.4V33.2z M58.2,36.4h1.4v8.3h-1.4V36.4z"/>
	<path d="M67.8,37.2c0.7,0.7,1.1,1.8,1.1,3.2c0,1.3-0.3,2.5-1,3.3c-0.7,0.9-1.7,1.3-3,1.3c-1.1,0-2.1-0.4-2.7-1.2
		c-0.7-0.8-1-1.8-1-3.1c0-1.4,0.4-2.5,1.1-3.4c0.7-0.8,1.7-1.2,2.9-1.2C66.2,36.1,67.1,36.5,67.8,37.2z M66.9,42.7
		c0.3-0.7,0.5-1.5,0.5-2.4c0-0.8-0.1-1.4-0.4-1.9c-0.4-0.8-1.1-1.2-2-1.2c-0.9,0-1.5,0.3-1.9,1c-0.4,0.7-0.6,1.4-0.6,2.4
		c0,0.9,0.2,1.6,0.6,2.2s1,0.9,1.8,0.9C66,43.8,66.6,43.5,66.9,42.7z"/>
	<path d="M70.7,36.3H72v1.2c0.4-0.5,0.8-0.8,1.3-1.1s0.9-0.3,1.5-0.3c1.2,0,2,0.4,2.4,1.2c0.2,0.5,0.3,1.1,0.3,1.9v5.4h-1.4v-5.3
		c0-0.5-0.1-0.9-0.2-1.2c-0.3-0.5-0.7-0.8-1.4-0.8c-0.3,0-0.6,0-0.8,0.1c-0.4,0.1-0.7,0.3-1,0.7c-0.2,0.3-0.4,0.6-0.5,0.9
		s-0.1,0.7-0.1,1.3v4.4h-1.4V36.3z"/>
	<path d="M85.3,36.9c-0.2-0.4-0.2-0.7-0.2-1.1c0-0.7,0.2-1.4,0.7-1.8c0.5-0.5,1.2-0.7,2-0.7c0.8,0,1.4,0.2,1.9,0.7
		c0.4,0.5,0.7,1,0.7,1.6c0,0.7-0.2,1.4-0.7,1.9c-0.3,0.3-0.7,0.7-1.4,1.1l2.1,2.5c0.1-0.4,0.2-0.7,0.3-0.9c0.1-0.2,0.1-0.5,0.2-0.9
		h1.3c-0.1,0.7-0.3,1.4-0.5,2.1c-0.3,0.7-0.4,0.9-0.4,0.8l2,2.5h-1.8l-1.1-1.3c-0.4,0.5-0.8,0.8-1.2,1c-0.6,0.4-1.3,0.6-2.1,0.6
		c-1.2,0-2.1-0.3-2.6-1c-0.5-0.6-0.8-1.4-0.8-2.2c0-0.9,0.3-1.6,0.8-2.2c0.3-0.4,0.9-0.8,1.8-1.3C85.8,37.8,85.5,37.3,85.3,36.9z
		 M88.7,43.4c0.4-0.3,0.7-0.6,1-0.9L87,39.3c-0.7,0.5-1.2,0.9-1.4,1.1c-0.3,0.4-0.5,0.9-0.5,1.4c0,0.6,0.2,1.1,0.7,1.4
		c0.4,0.3,0.9,0.5,1.4,0.5C87.8,43.7,88.3,43.6,88.7,43.4z M88.6,36.8c0.3-0.4,0.5-0.7,0.5-1.2c0-0.3-0.1-0.6-0.3-0.9
		c-0.2-0.2-0.5-0.4-0.9-0.4c-0.6,0-1,0.2-1.2,0.6c-0.1,0.2-0.2,0.4-0.2,0.6c0,0.3,0.1,0.6,0.3,0.9c0.2,0.3,0.5,0.7,0.9,1.1
		C88,37.3,88.4,37.1,88.6,36.8z"/>
	<path d="M107.4,33.2v1.4h-3.9v10.1H102V34.6h-3.9v-1.4H107.4z"/>
	<path d="M112,36.6c0.6,0.3,1,0.6,1.3,1.1c0.3,0.4,0.5,0.9,0.6,1.5c0.1,0.4,0.1,1,0.1,1.8h-6.1c0,0.9,0.2,1.5,0.6,2.1
		c0.4,0.5,0.9,0.8,1.7,0.8c0.7,0,1.3-0.2,1.7-0.7c0.2-0.3,0.4-0.6,0.5-1h1.4c0,0.3-0.2,0.7-0.4,1c-0.2,0.4-0.4,0.7-0.7,0.9
		c-0.4,0.4-0.9,0.7-1.6,0.8c-0.3,0.1-0.7,0.1-1.1,0.1c-1,0-1.9-0.4-2.6-1.1c-0.7-0.8-1.1-1.8-1.1-3.2c0-1.3,0.4-2.4,1.1-3.3
		c0.7-0.8,1.7-1.3,2.8-1.3C110.9,36.2,111.5,36.3,112,36.6z M112.5,39.9c-0.1-0.6-0.2-1.1-0.4-1.5c-0.4-0.7-1-1-1.9-1
		c-0.6,0-1.2,0.2-1.6,0.7c-0.4,0.5-0.7,1.1-0.7,1.8H112.5z"/>
	<path d="M121.3,36.8c0.6,0.5,0.9,1.2,1.1,2.4H121c-0.1-0.5-0.3-0.9-0.6-1.3c-0.3-0.3-0.8-0.5-1.4-0.5c-0.9,0-1.5,0.4-1.9,1.3
		c-0.3,0.6-0.4,1.3-0.4,2.1c0,0.8,0.2,1.5,0.5,2.1s0.9,0.9,1.7,0.9c0.6,0,1-0.2,1.4-0.5c0.3-0.4,0.6-0.8,0.7-1.5h1.4
		c-0.2,1.1-0.5,1.9-1.2,2.4s-1.4,0.8-2.4,0.8c-1.1,0-2-0.4-2.6-1.2c-0.7-0.8-1-1.8-1-3c0-1.5,0.4-2.6,1.1-3.4
		c0.7-0.8,1.6-1.2,2.7-1.2C119.9,36.1,120.7,36.3,121.3,36.8z"/>
	<path d="M123.8,33.2h1.4v4.3c0.3-0.4,0.6-0.7,0.9-0.9c0.5-0.3,1-0.4,1.7-0.4c1.2,0,2,0.4,2.5,1.3c0.2,0.5,0.4,1.1,0.4,1.9v5.4h-1.4
		v-5.3c0-0.6-0.1-1.1-0.2-1.4c-0.3-0.5-0.7-0.7-1.4-0.7c-0.6,0-1.1,0.2-1.6,0.6c-0.5,0.4-0.7,1.2-0.7,2.3v4.4h-1.4V33.2z"/>
	<path d="M132.7,36.3h1.3v1.2c0.4-0.5,0.8-0.8,1.3-1.1s0.9-0.3,1.5-0.3c1.2,0,2,0.4,2.4,1.2c0.2,0.5,0.3,1.1,0.3,1.9v5.4h-1.4v-5.3
		c0-0.5-0.1-0.9-0.2-1.2c-0.3-0.5-0.7-0.8-1.4-0.8c-0.3,0-0.6,0-0.8,0.1c-0.4,0.1-0.7,0.3-1,0.7c-0.2,0.3-0.4,0.6-0.5,0.9
		s-0.1,0.7-0.1,1.3v4.4h-1.4V36.3z"/>
	<path d="M147.7,37.2c0.7,0.7,1.1,1.8,1.1,3.2c0,1.3-0.3,2.5-1,3.3c-0.7,0.9-1.7,1.3-3,1.3c-1.1,0-2.1-0.4-2.7-1.2
		c-0.7-0.8-1-1.8-1-3.1c0-1.4,0.4-2.5,1.1-3.4c0.7-0.8,1.7-1.2,2.9-1.2C146,36.1,146.9,36.5,147.7,37.2z M146.8,42.7
		c0.3-0.7,0.5-1.5,0.5-2.4c0-0.8-0.1-1.4-0.4-1.9c-0.4-0.8-1.1-1.2-2-1.2c-0.9,0-1.5,0.3-1.9,1c-0.4,0.7-0.6,1.4-0.6,2.4
		c0,0.9,0.2,1.6,0.6,2.2s1,0.9,1.8,0.9C145.8,43.8,146.4,43.5,146.8,42.7z"/>
	<path d="M150.5,33.2h1.4v11.5h-1.4V33.2z"/>
	<path d="M160.1,37.2c0.7,0.7,1.1,1.8,1.1,3.2c0,1.3-0.3,2.5-1,3.3c-0.7,0.9-1.7,1.3-3,1.3c-1.1,0-2.1-0.4-2.7-1.2
		c-0.7-0.8-1-1.8-1-3.1c0-1.4,0.4-2.5,1.1-3.4c0.7-0.8,1.7-1.2,2.9-1.2C158.5,36.1,159.4,36.5,160.1,37.2z M159.3,42.7
		c0.3-0.7,0.5-1.5,0.5-2.4c0-0.8-0.1-1.4-0.4-1.9c-0.4-0.8-1.1-1.2-2-1.2c-0.9,0-1.5,0.3-1.9,1c-0.4,0.7-0.6,1.4-0.6,2.4
		c0,0.9,0.2,1.6,0.6,2.2s1,0.9,1.8,0.9C158.3,43.8,158.9,43.5,159.3,42.7z"/>
	<path d="M167.6,36.7c0.3,0.2,0.5,0.4,0.8,0.8v-1.1h1.3V44c0,1.1-0.2,1.9-0.5,2.5c-0.6,1.1-1.7,1.7-3.3,1.7c-0.9,0-1.7-0.2-2.3-0.6
		s-1-1-1-1.9h1.4c0.1,0.4,0.2,0.7,0.4,0.9c0.3,0.3,0.8,0.5,1.5,0.5c1.1,0,1.8-0.4,2.1-1.1c0.2-0.4,0.3-1.2,0.3-2.4
		c-0.3,0.4-0.6,0.7-1,1c-0.4,0.2-0.9,0.3-1.6,0.3c-0.9,0-1.7-0.3-2.4-1c-0.7-0.6-1-1.7-1-3.2c0-1.4,0.3-2.5,1-3.3
		c0.7-0.8,1.5-1.2,2.5-1.2C166.6,36.2,167.1,36.4,167.6,36.7z M167.8,38.2c-0.4-0.5-1-0.8-1.6-0.8c-1,0-1.7,0.5-2,1.4
		c-0.2,0.5-0.3,1.1-0.3,1.9c0,0.9,0.2,1.7,0.6,2.2c0.4,0.5,0.9,0.7,1.5,0.7c1,0,1.7-0.5,2.1-1.4c0.2-0.5,0.3-1.1,0.3-1.8
		C168.4,39.5,168.2,38.7,167.8,38.2z"/>
	<path d="M177.1,36.3h1.6c-0.2,0.5-0.6,1.8-1.3,3.7c-0.5,1.4-0.9,2.6-1.3,3.5c-0.8,2.1-1.4,3.4-1.7,3.9c-0.3,0.5-0.9,0.7-1.7,0.7
		c-0.2,0-0.4,0-0.5,0c-0.1,0-0.2,0-0.4-0.1v-1.3c0.2,0.1,0.4,0.1,0.5,0.1c0.1,0,0.2,0,0.3,0c0.3,0,0.5,0,0.6-0.1
		c0.1-0.1,0.2-0.2,0.3-0.3c0,0,0.1-0.3,0.3-0.6c0.2-0.4,0.3-0.7,0.4-0.9l-3.1-8.6h1.6l2.2,6.8L177.1,36.3z"/>
</g>
</svg>
